<svg width="3777" height="906" viewBox="0 0 3777 906" fill="none" xmlns="http://www.w3.org/2000/svg">
<path d="M2549.23 12.4C2548.51 12.4049 2547.8 12.1815 2547.21 11.7614C2546.62 11.3414 2546.17 10.7461 2545.94 10.06C2545.67 9.18595 2545.75 8.24002 2546.17 7.42498C2546.58 6.60995 2547.3 5.99068 2548.17 5.69994C2559.4 1.93098 2571.21 0.187217 2583.05 0.54995C2583.95 0.583862 2584.8 0.971155 2585.42 1.62804C2586.04 2.28493 2586.37 3.1586 2586.35 4.05996C2586.36 4.51417 2586.27 4.9654 2586.1 5.38436C2585.92 5.80333 2585.66 6.18065 2585.33 6.49184C2585 6.80304 2584.61 7.04114 2584.18 7.1907C2583.75 7.34025 2583.29 7.39792 2582.84 7.35995C2571.8 7.08514 2560.79 8.70529 2550.3 12.15C2549.95 12.2578 2549.59 12.3282 2549.23 12.3599V12.4ZM2643.99 34.7299C2643.51 34.7374 2643.04 34.6472 2642.6 34.4649C2642.16 34.2826 2641.76 34.012 2641.43 33.6699C2635.9 27.4682 2629.36 22.2536 2622.08 18.25C2619.74 16.9642 2617.33 15.8253 2614.85 14.84C2614.41 14.6745 2614.01 14.4209 2613.66 14.0948C2613.32 13.7687 2613.05 13.3767 2612.87 12.9427C2612.68 12.5088 2612.59 12.0418 2612.59 11.5703C2612.59 11.0987 2612.69 10.6324 2612.88 10.1996C2613.06 9.76678 2613.34 9.37655 2613.68 9.05258C2614.02 8.7286 2614.43 8.47766 2614.87 8.31496C2615.31 8.15227 2615.78 8.08124 2616.26 8.10616C2616.73 8.13109 2617.19 8.25145 2617.61 8.45995C2620.16 9.62995 2622.72 10.91 2625.27 12.19C2633.27 16.5255 2640.47 22.2088 2646.54 28.99C2647.15 29.6709 2647.47 30.5652 2647.43 31.48C2647.39 32.3947 2646.99 33.2567 2646.32 33.8799C2646.01 34.1714 2645.64 34.397 2645.24 34.5431C2644.84 34.6892 2644.42 34.7527 2643.99 34.7299ZM2491.28 48.34C2490.81 48.3273 2490.35 48.2167 2489.93 48.0151C2489.51 47.8136 2489.13 47.5256 2488.83 47.1699C2488.51 46.8558 2488.26 46.4796 2488.09 46.0644C2487.92 45.6493 2487.84 45.204 2487.85 44.7562C2487.86 44.3083 2487.96 43.8673 2488.15 43.4603C2488.34 43.0534 2488.61 42.6891 2488.94 42.3899C2497.49 34.4565 2506.7 27.2702 2516.48 20.9099C2516.86 20.6657 2517.29 20.4994 2517.74 20.4204C2518.19 20.3415 2518.65 20.3515 2519.09 20.45C2519.53 20.5484 2519.95 20.7333 2520.33 20.9941C2520.7 21.2549 2521.02 21.5865 2521.26 21.97C2521.5 22.3534 2521.67 22.7812 2521.75 23.229C2521.83 23.6767 2521.82 24.1356 2521.72 24.5795C2521.62 25.0234 2521.44 25.4435 2521.18 25.8159C2520.91 26.1883 2520.58 26.5057 2520.2 26.75C2510.72 32.7986 2501.81 39.7077 2493.6 47.3899C2492.98 48.0199 2492.14 48.3795 2491.26 48.3899L2491.28 48.34ZM2673.28 96.09C2672.5 96.0905 2671.74 95.8287 2671.12 95.3465C2670.5 94.8644 2670.07 94.1896 2669.88 93.43C2667.48 82.4632 2663.93 71.7783 2659.3 61.5499C2658.94 60.7155 2658.92 59.776 2659.24 58.9256C2659.55 58.0752 2660.18 57.3787 2661 56.9799C2661.83 56.6054 2662.78 56.5738 2663.63 56.892C2664.49 57.2102 2665.18 57.8526 2665.57 58.68C2670.38 69.363 2674.06 80.516 2676.57 91.96C2676.75 92.8291 2676.59 93.7351 2676.11 94.4831C2675.63 95.2312 2674.88 95.7614 2674.01 95.96C2673.77 96.0502 2673.52 96.0877 2673.27 96.0699L2673.28 96.09ZM2447.2 100.77C2446.51 100.772 2445.83 100.547 2445.28 100.13C2444.9 99.8829 2444.57 99.563 2444.31 99.1885C2444.06 98.8141 2443.88 98.3925 2443.78 97.9482C2443.69 97.5038 2443.69 97.0455 2443.77 96.5995C2443.86 96.1536 2444.03 95.7289 2444.28 95.3499C2450.72 85.7397 2457.64 76.4612 2465.01 67.5499C2465.3 67.1943 2465.66 66.9004 2466.06 66.6859C2466.47 66.4714 2466.91 66.3407 2467.37 66.3015C2467.82 66.2623 2468.28 66.3154 2468.72 66.4578C2469.15 66.6001 2469.55 66.8287 2469.9 67.1299C2470.57 67.7178 2470.99 68.5431 2471.07 69.4336C2471.15 70.3242 2470.89 71.2113 2470.33 71.9099C2463.06 80.6003 2456.28 89.6876 2450.02 99.1299C2449.69 99.5934 2449.26 99.9775 2448.77 100.254C2448.27 100.531 2447.72 100.694 2447.15 100.73L2447.2 100.77ZM3220.09 105.87H3219.56C3208.35 104.347 3197.05 103.462 3185.74 103.22C3184.85 103.164 3184.01 102.77 3183.4 102.117C3182.79 101.465 3182.45 100.604 3182.45 99.71C3182.44 99.2504 3182.52 98.7934 3182.7 98.3677C3182.87 97.942 3183.13 97.5569 3183.46 97.2366C3183.79 96.9162 3184.18 96.6677 3184.61 96.5065C3185.04 96.3453 3185.5 96.2749 3185.96 96.2999C3197.52 96.6374 3209.05 97.562 3220.52 99.0699C3221.43 99.2041 3222.26 99.6902 3222.82 100.424C3223.38 101.159 3223.63 102.083 3223.52 103C3223.4 103.812 3222.99 104.554 3222.37 105.084C3221.74 105.613 3220.94 105.893 3220.12 105.87H3220.09ZM3117.6 109.81C3116.82 109.805 3116.06 109.542 3115.45 109.06C3114.83 108.579 3114.39 107.907 3114.2 107.15C3114.1 106.703 3114.08 106.239 3114.16 105.787C3114.24 105.335 3114.41 104.902 3114.66 104.516C3114.91 104.129 3115.23 103.796 3115.61 103.536C3115.98 103.276 3116.41 103.093 3116.86 103C3128.17 100.402 3139.65 98.5912 3151.21 97.5799C3151.66 97.5317 3152.11 97.5737 3152.54 97.7034C3152.97 97.833 3153.37 98.0477 3153.72 98.3348C3154.07 98.6219 3154.35 98.9756 3154.56 99.3749C3154.77 99.7743 3154.89 100.211 3154.93 100.66C3154.97 101.552 3154.68 102.427 3154.11 103.115C3153.54 103.803 3152.73 104.254 3151.85 104.38C3140.58 105.425 3129.39 107.202 3118.35 109.7C3118.14 109.7 3117.82 109.81 3117.6 109.81ZM3286.19 123.55C3285.71 123.532 3285.24 123.424 3284.8 123.23C3274.41 118.868 3263.72 115.278 3252.8 112.49C3251.92 112.233 3251.18 111.646 3250.72 110.852C3250.26 110.059 3250.13 109.119 3250.35 108.23C3250.6 107.368 3251.16 106.634 3251.94 106.18C3252.71 105.726 3253.63 105.586 3254.5 105.79C3265.79 108.681 3276.86 112.405 3287.6 116.93C3288.43 117.291 3289.08 117.961 3289.42 118.796C3289.75 119.632 3289.75 120.566 3289.41 121.4C3289.13 122.02 3288.69 122.548 3288.12 122.925C3287.56 123.302 3286.9 123.512 3286.22 123.53L3286.19 123.55ZM3054.25 135.35C3053.67 135.363 3053.1 135.223 3052.6 134.944C3052.1 134.664 3051.67 134.256 3051.38 133.76C3051.14 133.375 3050.97 132.946 3050.89 132.497C3050.81 132.048 3050.82 131.588 3050.92 131.143C3051.02 130.699 3051.21 130.278 3051.47 129.905C3051.73 129.532 3052.07 129.214 3052.45 128.97C3062.33 122.806 3072.76 117.567 3083.6 113.32C3084.02 113.127 3084.47 113.02 3084.93 113.006C3085.38 112.992 3085.84 113.072 3086.27 113.239C3086.69 113.407 3087.08 113.659 3087.41 113.981C3087.74 114.304 3087.99 114.689 3088.17 115.113C3088.34 115.538 3088.42 115.993 3088.42 116.452C3088.41 116.91 3088.31 117.362 3088.12 117.781C3087.93 118.2 3087.66 118.576 3087.33 118.887C3086.99 119.197 3086.59 119.437 3086.16 119.59C3075.7 123.756 3065.62 128.846 3056.06 134.8C3055.51 135.136 3054.89 135.319 3054.25 135.33V135.35ZM2216.49 136.41C2215.91 136.423 2215.34 136.283 2214.84 136.004C2214.34 135.724 2213.91 135.316 2213.62 134.82C2207.55 124.849 2202.39 114.349 2198.2 103.45C2198.04 103.032 2197.97 102.588 2197.99 102.143C2198 101.697 2198.11 101.259 2198.29 100.854C2198.48 100.448 2198.74 100.084 2199.07 99.7812C2199.4 99.4785 2199.78 99.2436 2200.2 99.09C2200.61 98.9241 2201.05 98.8421 2201.49 98.8487C2201.94 98.8552 2202.38 98.9502 2202.78 99.1281C2203.19 99.306 2203.55 99.5632 2203.86 99.8847C2204.16 100.206 2204.4 100.585 2204.56 101C2208.63 111.517 2213.61 121.659 2219.45 131.31C2219.78 131.826 2219.96 132.423 2219.97 133.036C2219.98 133.648 2219.82 134.252 2219.51 134.779C2219.2 135.307 2218.75 135.739 2218.21 136.027C2217.67 136.314 2217.06 136.447 2216.45 136.41H2216.49ZM3342.76 161.51C3342.28 161.518 3341.81 161.429 3341.37 161.246C3340.94 161.064 3340.54 160.793 3340.21 160.45C3332.63 152.251 3324.06 145.035 3314.69 138.97C3314.3 138.74 3313.97 138.434 3313.71 138.072C3313.44 137.709 3313.25 137.296 3313.15 136.859C3313.05 136.421 3313.04 135.968 3313.12 135.527C3313.2 135.085 3313.37 134.664 3313.62 134.29C3313.86 133.905 3314.18 133.572 3314.55 133.31C3314.93 133.048 3315.35 132.862 3315.79 132.763C3316.24 132.663 3316.7 132.653 3317.15 132.731C3317.6 132.81 3318.03 132.976 3318.41 133.22C3328.29 139.576 3337.33 147.153 3345.31 155.77C3345.61 156.097 3345.85 156.48 3346 156.898C3346.15 157.316 3346.22 157.759 3346.2 158.204C3346.18 158.648 3346.07 159.084 3345.88 159.487C3345.7 159.89 3345.43 160.251 3345.1 160.55C3344.8 160.863 3344.43 161.113 3344.03 161.285C3343.63 161.456 3343.2 161.546 3342.76 161.55V161.51ZM2416.09 161.83C2415.69 161.872 2415.28 161.799 2414.92 161.62C2414.06 161.289 2413.38 160.633 2413 159.796C2412.63 158.959 2412.6 158.008 2412.92 157.15C2415.92 149.39 2419.2 141.41 2422.71 133.54C2423.98 130.78 2425.26 128.12 2426.64 125.35C2427.07 124.535 2427.8 123.922 2428.67 123.644C2429.55 123.367 2430.5 123.448 2431.32 123.87C2431.72 124.069 2432.08 124.346 2432.37 124.685C2432.66 125.024 2432.88 125.417 2433.02 125.843C2433.16 126.268 2433.21 126.717 2433.18 127.163C2433.14 127.609 2433.02 128.043 2432.81 128.44C2431.43 131.2 2430.15 133.76 2428.98 136.31C2425.58 144.18 2422.28 152.05 2419.3 159.7C2419.04 160.329 2418.59 160.867 2418.03 161.246C2417.46 161.625 2416.79 161.828 2416.11 161.83H2416.09ZM2677.7 164.38H2677.38C2676.47 164.296 2675.63 163.861 2675.03 163.166C2674.44 162.472 2674.13 161.573 2674.19 160.66C2674.82 154.28 2675.04 147.79 2675.04 141.31C2675.04 136.52 2674.93 131.63 2674.61 126.84C2674.58 126.386 2674.64 125.932 2674.79 125.502C2674.94 125.072 2675.17 124.676 2675.47 124.335C2675.77 123.995 2676.14 123.717 2676.55 123.518C2676.96 123.319 2677.4 123.203 2677.85 123.175C2678.77 123.119 2679.67 123.43 2680.36 124.038C2680.7 124.34 2680.98 124.705 2681.18 125.114C2681.38 125.522 2681.49 125.966 2681.52 126.42C2681.74 131.31 2681.95 136.31 2681.95 141.31C2681.95 148.01 2681.63 154.7 2681.1 161.31C2680.99 162.144 2680.59 162.913 2679.97 163.478C2679.35 164.042 2678.54 164.366 2677.7 164.39V164.38ZM3005.7 182.99C3005.06 182.979 3004.43 182.796 3003.89 182.46C3003.51 182.216 3003.17 181.898 3002.91 181.525C3002.65 181.152 3002.46 180.731 3002.36 180.287C3002.26 179.842 3002.25 179.382 3002.33 178.933C3002.41 178.484 3002.58 178.055 3002.82 177.67C3009.13 167.824 3016.54 158.726 3024.9 150.55C3025.23 150.235 3025.62 149.989 3026.04 149.824C3026.46 149.659 3026.91 149.579 3027.37 149.589C3027.82 149.598 3028.27 149.698 3028.69 149.881C3029.1 150.064 3029.48 150.327 3029.79 150.655C3030.11 150.983 3030.36 151.37 3030.52 151.794C3030.69 152.218 3030.77 152.67 3030.76 153.124C3030.75 153.579 3030.65 154.027 3030.46 154.443C3030.28 154.859 3030.02 155.235 3029.69 155.55C3021.69 163.344 3014.59 172.012 3008.53 181.39C3008.24 181.886 3007.81 182.294 3007.31 182.574C3006.81 182.853 3006.24 182.993 3005.66 182.98L3005.7 182.99ZM2259.7 189.59C2259.26 189.586 2258.83 189.496 2258.43 189.325C2258.03 189.153 2257.66 188.903 2257.36 188.59C2248.99 180.595 2241.11 172.107 2233.76 163.17C2233.2 162.451 2232.94 161.549 2233.01 160.643C2233.09 159.737 2233.51 158.893 2234.18 158.28C2234.9 157.71 2235.82 157.446 2236.73 157.545C2237.65 157.644 2238.49 158.098 2239.07 158.81C2246.28 167.541 2253.99 175.851 2262.15 183.7C2262.47 184.012 2262.72 184.385 2262.89 184.795C2263.06 185.205 2263.15 185.645 2263.15 186.09C2263.15 186.535 2263.06 186.975 2262.89 187.385C2262.72 187.795 2262.47 188.167 2262.15 188.48C2261.85 188.831 2261.47 189.11 2261.05 189.296C2260.62 189.481 2260.16 189.568 2259.7 189.55V189.59ZM3375.87 220.96C3375.13 220.965 3374.41 220.729 3373.81 220.287C3373.22 219.845 3372.79 219.221 3372.58 218.51C3369.51 207.711 3365.23 197.295 3359.82 187.46C3359.61 187.07 3359.47 186.642 3359.43 186.2C3359.38 185.758 3359.42 185.311 3359.55 184.886C3359.68 184.461 3359.89 184.065 3360.18 183.723C3360.46 183.38 3360.81 183.097 3361.2 182.89C3361.99 182.443 3362.92 182.326 3363.8 182.564C3364.68 182.802 3365.42 183.375 3365.88 184.16C3371.48 194.435 3375.92 205.298 3379.13 216.55C3379.38 217.424 3379.27 218.36 3378.83 219.156C3378.4 219.951 3377.66 220.542 3376.79 220.8C3376.47 220.895 3376.13 220.932 3375.79 220.91L3375.87 220.96ZM2396.53 227.55H2395.89C2395.01 227.357 2394.25 226.833 2393.75 226.087C2393.26 225.341 2393.07 224.431 2393.23 223.55C2395.36 212.55 2398.23 201.32 2401.63 189.94C2401.92 189.069 2402.54 188.343 2403.35 187.909C2404.16 187.474 2405.1 187.364 2405.99 187.6C2406.42 187.732 2406.81 187.947 2407.16 188.233C2407.5 188.519 2407.78 188.87 2407.99 189.266C2408.2 189.662 2408.33 190.095 2408.36 190.54C2408.4 190.985 2408.35 191.434 2408.22 191.86C2404.93 203.13 2402.06 214.19 2399.93 224.86C2399.79 225.655 2399.38 226.374 2398.75 226.884C2398.12 227.393 2397.34 227.658 2396.53 227.63V227.55ZM2656.96 229.04C2656.29 229.015 2655.63 228.833 2655.04 228.51C2654.31 227.977 2653.8 227.192 2653.62 226.307C2653.43 225.422 2653.58 224.5 2654.04 223.72C2656.23 220.578 2658.23 217.313 2660.04 213.94C2663.46 207.506 2666.21 200.732 2668.23 193.73C2668.49 192.859 2669.08 192.125 2669.87 191.687C2670.67 191.249 2671.61 191.142 2672.48 191.39C2672.91 191.522 2673.3 191.737 2673.65 192.023C2673.99 192.309 2674.28 192.66 2674.48 193.055C2674.69 193.451 2674.82 193.884 2674.86 194.329C2674.9 194.774 2674.85 195.223 2674.72 195.65C2672.6 203.122 2669.71 210.354 2666.1 217.23C2664.1 220.74 2662.1 224.23 2659.83 227.55C2659.51 228.018 2659.09 228.399 2658.58 228.659C2658.08 228.919 2657.52 229.05 2656.96 229.04ZM2313.58 232.04C2312.94 232.025 2312.31 231.839 2311.77 231.5C2301.88 225.12 2292.42 218.32 2283.48 211.41C2283.13 211.131 2282.84 210.785 2282.62 210.393C2282.41 210.001 2282.27 209.57 2282.22 209.125C2282.17 208.68 2282.21 208.23 2282.33 207.8C2282.46 207.37 2282.67 206.969 2282.95 206.62C2283.21 206.251 2283.55 205.94 2283.94 205.707C2284.33 205.473 2284.76 205.321 2285.21 205.261C2285.66 205.201 2286.11 205.234 2286.55 205.358C2286.98 205.481 2287.39 205.693 2287.74 205.98C2296.46 212.89 2305.82 219.49 2315.49 225.76C2315.87 225.994 2316.2 226.303 2316.46 226.668C2316.72 227.033 2316.9 227.447 2316.99 227.885C2317.09 228.323 2317.09 228.775 2317 229.215C2316.92 229.654 2316.74 230.071 2316.49 230.44C2316.2 230.937 2315.78 231.347 2315.27 231.628C2314.77 231.909 2314.2 232.051 2313.62 232.04H2313.58ZM2981.52 246.71H2980.98C2980.54 246.636 2980.12 246.476 2979.74 246.238C2979.36 245.999 2979.03 245.689 2978.78 245.323C2978.52 244.957 2978.34 244.544 2978.24 244.107C2978.15 243.671 2978.14 243.22 2978.22 242.78C2980.14 231.289 2983.13 220.003 2987.15 209.07C2987.49 208.22 2988.14 207.535 2988.98 207.162C2989.81 206.788 2990.76 206.755 2991.62 207.07C2992.04 207.224 2992.42 207.459 2992.75 207.761C2993.08 208.064 2993.34 208.428 2993.53 208.834C2993.71 209.239 2993.82 209.677 2993.83 210.123C2993.85 210.568 2993.78 211.012 2993.62 211.43C2989.71 221.984 2986.79 232.877 2984.9 243.97C2984.76 244.761 2984.34 245.476 2983.71 245.982C2983.09 246.489 2982.3 246.754 2981.5 246.73L2981.52 246.71ZM2374.09 264.32C2373.61 264.32 2373.14 264.211 2372.71 264C2362.18 259.43 2351.65 254.43 2341.55 249C2341.15 248.789 2340.79 248.5 2340.5 248.148C2340.21 247.796 2339.99 247.39 2339.87 246.953C2339.74 246.516 2339.7 246.058 2339.75 245.606C2339.8 245.153 2339.95 244.716 2340.17 244.32C2340.37 243.919 2340.65 243.563 2340.99 243.274C2341.33 242.984 2341.73 242.769 2342.16 242.639C2342.58 242.51 2343.03 242.47 2343.48 242.522C2343.92 242.573 2344.35 242.716 2344.74 242.94C2354.74 248.26 2365.05 253.25 2375.47 257.72C2376.2 258.029 2376.81 258.584 2377.18 259.288C2377.54 259.993 2377.66 260.805 2377.49 261.583C2377.33 262.362 2376.9 263.06 2376.28 263.557C2375.66 264.055 2374.89 264.321 2374.09 264.31V264.32ZM2606.66 274.64C2606.04 274.638 2605.44 274.469 2604.91 274.15C2604.38 273.831 2603.95 273.375 2603.66 272.83C2603.45 272.44 2603.32 272.012 2603.27 271.57C2603.23 271.128 2603.27 270.682 2603.4 270.257C2603.53 269.832 2603.74 269.437 2604.02 269.094C2604.3 268.751 2604.65 268.468 2605.04 268.26C2614.91 262.992 2624.09 256.526 2632.37 249.01C2632.71 248.703 2633.11 248.467 2633.54 248.316C2633.97 248.165 2634.43 248.103 2634.89 248.133C2635.34 248.163 2635.79 248.284 2636.2 248.49C2636.61 248.695 2636.97 248.981 2637.27 249.33C2637.58 249.659 2637.81 250.046 2637.96 250.469C2638.11 250.892 2638.17 251.341 2638.14 251.789C2638.11 252.237 2637.99 252.674 2637.79 253.073C2637.58 253.472 2637.3 253.825 2636.95 254.11C2628.27 261.982 2618.66 268.769 2608.34 274.32C2607.8 274.537 2607.22 274.646 2606.64 274.64H2606.66ZM2439.06 286.23C2438.81 286.248 2438.56 286.21 2438.32 286.12C2427.26 283.47 2416.09 280.12 2405.03 276.45C2404.6 276.31 2404.2 276.084 2403.86 275.787C2403.52 275.49 2403.24 275.127 2403.04 274.72C2402.85 274.313 2402.73 273.87 2402.71 273.419C2402.69 272.967 2402.75 272.515 2402.91 272.09C2403.22 271.239 2403.85 270.541 2404.66 270.143C2405.47 269.746 2406.41 269.68 2407.27 269.96C2418.11 273.68 2429.07 276.87 2439.91 279.42C2440.78 279.658 2441.53 280.219 2442.01 280.99C2442.48 281.76 2442.65 282.683 2442.47 283.57C2442.28 284.33 2441.84 285.004 2441.22 285.485C2440.6 285.967 2439.84 286.229 2439.06 286.23ZM3380.94 289C3380.79 289.005 3380.64 288.966 3380.51 288.89C3379.62 288.782 3378.82 288.333 3378.26 287.638C3377.7 286.944 3377.43 286.058 3377.51 285.17C3378.36 278.146 3378.79 271.076 3378.79 264C3378.79 259.86 3378.58 255.6 3378.37 251.46C3378.33 251.019 3378.38 250.576 3378.52 250.155C3378.65 249.733 3378.87 249.343 3379.15 249.006C3379.44 248.67 3379.79 248.393 3380.18 248.193C3380.58 247.993 3381.01 247.873 3381.45 247.84C3381.9 247.804 3382.36 247.859 3382.79 248C3383.23 248.141 3383.63 248.367 3383.97 248.663C3384.32 248.959 3384.6 249.321 3384.81 249.727C3385.01 250.133 3385.14 250.576 3385.17 251.03C3385.49 255.28 3385.6 259.64 3385.6 264.03C3385.6 271.352 3385.17 278.668 3384.32 285.94C3384.23 286.784 3383.84 287.565 3383.21 288.136C3382.58 288.706 3381.77 289.024 3380.92 289.03L3380.94 289ZM2541.26 294.1C2540.37 294.118 2539.51 293.788 2538.86 293.181C2538.21 292.574 2537.83 291.738 2537.79 290.851C2537.74 289.963 2538.05 289.095 2538.64 288.429C2539.23 287.764 2540.05 287.356 2540.94 287.29C2552.13 286.063 2563.19 283.895 2574.01 280.81C2574.88 280.555 2575.82 280.658 2576.62 281.096C2577.42 281.534 2578.01 282.271 2578.26 283.145C2578.52 284.019 2578.42 284.958 2577.98 285.756C2577.54 286.554 2576.8 287.145 2575.93 287.4C2564.73 290.607 2553.27 292.848 2541.68 294.1H2541.26ZM2507.02 295.55H2506.91C2495.34 295.213 2483.8 294.212 2472.35 292.55C2471.9 292.506 2471.47 292.37 2471.07 292.149C2470.68 291.929 2470.34 291.628 2470.07 291.268C2469.8 290.908 2469.61 290.495 2469.51 290.056C2469.4 289.617 2469.4 289.162 2469.48 288.72C2469.53 288.269 2469.67 287.832 2469.89 287.435C2470.11 287.038 2470.4 286.69 2470.76 286.41C2471.12 286.13 2471.53 285.925 2471.97 285.806C2472.4 285.688 2472.86 285.659 2473.31 285.72C2484.51 287.396 2495.8 288.358 2507.12 288.6C2508 288.659 2508.83 289.055 2509.43 289.707C2510.04 290.358 2510.36 291.216 2510.35 292.102C2510.34 292.989 2509.98 293.837 2509.37 294.471C2508.75 295.105 2507.91 295.477 2507.02 295.51V295.55ZM2391.1 295.76C2390.22 295.758 2389.37 295.413 2388.73 294.797C2388.1 294.181 2387.73 293.343 2387.7 292.46C2387.38 288.21 2387.27 283.85 2387.27 279.6C2387.27 272.47 2387.59 265.13 2388.27 257.8C2388.35 256.889 2388.79 256.047 2389.48 255.451C2390.18 254.856 2391.08 254.554 2391.99 254.61C2392.44 254.645 2392.88 254.77 2393.28 254.977C2393.68 255.184 2394.03 255.47 2394.32 255.817C2394.61 256.163 2394.83 256.565 2394.96 256.996C2395.09 257.428 2395.13 257.882 2395.08 258.33C2394.55 265.56 2394.23 272.68 2394.23 279.6C2394.23 283.74 2394.33 288 2394.55 292.15C2394.59 293.049 2394.29 293.93 2393.69 294.604C2393.09 295.278 2392.26 295.693 2391.36 295.76H2391.1ZM2982.69 314.76C2981.89 314.772 2981.1 314.501 2980.48 313.995C2979.86 313.488 2979.43 312.779 2979.28 311.99C2976.98 300.607 2975.69 289.041 2975.45 277.43C2975.44 276.976 2975.53 276.524 2975.69 276.102C2975.86 275.68 2976.11 275.295 2976.43 274.969C2976.74 274.643 2977.12 274.382 2977.54 274.202C2977.96 274.022 2978.41 273.926 2978.86 273.92C2979.77 273.924 2980.64 274.281 2981.3 274.914C2981.95 275.548 2982.34 276.41 2982.37 277.32C2982.54 288.541 2983.75 299.722 2985.98 310.72C2986.07 311.157 2986.07 311.608 2985.99 312.047C2985.9 312.485 2985.73 312.903 2985.48 313.275C2985.24 313.647 2984.92 313.966 2984.55 314.214C2984.18 314.462 2983.76 314.634 2983.32 314.72L2982.69 314.76ZM3361.05 354.21C3360.49 354.218 3359.94 354.069 3359.46 353.78C3359.06 353.581 3358.7 353.304 3358.41 352.965C3358.12 352.626 3357.9 352.233 3357.76 351.807C3357.62 351.382 3357.57 350.933 3357.6 350.487C3357.64 350.041 3357.76 349.607 3357.97 349.21C3363.08 339.202 3367.3 328.77 3370.6 318.03C3370.71 317.583 3370.92 317.164 3371.2 316.798C3371.48 316.432 3371.83 316.126 3372.23 315.9C3372.63 315.675 3373.08 315.533 3373.53 315.484C3373.99 315.435 3374.46 315.479 3374.9 315.615C3375.34 315.751 3375.75 315.975 3376.1 316.274C3376.45 316.572 3376.74 316.939 3376.94 317.352C3377.15 317.765 3377.27 318.215 3377.29 318.676C3377.32 319.136 3377.25 319.597 3377.09 320.03C3373.69 331.171 3369.31 341.99 3364.01 352.36C3363.75 352.938 3363.33 353.427 3362.8 353.767C3362.26 354.106 3361.64 354.281 3361.01 354.27L3361.05 354.21ZM2406.1 362.21C2405.43 362.232 2404.77 362.053 2404.2 361.697C2403.63 361.341 2403.18 360.823 2402.91 360.21C2398.43 349.486 2394.9 338.386 2392.38 327.04C2392.27 326.6 2392.26 326.144 2392.33 325.697C2392.4 325.25 2392.56 324.821 2392.79 324.436C2393.03 324.05 2393.34 323.715 2393.71 323.45C2394.07 323.185 2394.49 322.995 2394.93 322.89C2395.38 322.791 2395.84 322.782 2396.29 322.862C2396.74 322.943 2397.17 323.111 2397.56 323.359C2397.94 323.606 2398.28 323.926 2398.54 324.302C2398.8 324.678 2398.98 325.102 2399.08 325.55C2401.51 336.49 2404.89 347.197 2409.18 357.55C2409.36 357.96 2409.46 358.404 2409.47 358.853C2409.48 359.302 2409.39 359.749 2409.22 360.165C2409.05 360.581 2408.8 360.96 2408.48 361.277C2408.17 361.594 2407.79 361.843 2407.37 362.01C2406.97 362.181 2406.53 362.253 2406.1 362.22V362.21ZM3005.55 379.21C3004.92 379.22 3004.3 379.057 3003.76 378.738C3003.21 378.418 3002.77 377.955 3002.47 377.4C2997.26 367.05 2992.68 356.398 2988.75 345.5C2988.59 345.083 2988.51 344.638 2988.52 344.19C2988.54 343.743 2988.64 343.303 2988.83 342.897C2989.01 342.49 2989.28 342.125 2989.61 341.823C2989.94 341.521 2990.33 341.289 2990.75 341.14C2991.59 340.837 2992.52 340.877 2993.34 341.251C2994.15 341.625 2994.79 342.303 2995.11 343.14C2998.97 353.791 3003.48 364.196 3008.61 374.3C3008.81 374.704 3008.92 375.143 3008.95 375.592C3008.98 376.041 3008.91 376.491 3008.77 376.916C3008.62 377.341 3008.39 377.732 3008.09 378.067C3007.79 378.403 3007.43 378.675 3007.02 378.87C3006.55 379.086 3006.04 379.195 3005.53 379.19L3005.55 379.21ZM3320.32 409.09C3319.84 409.097 3319.37 409.007 3318.93 408.825C3318.5 408.642 3318.1 408.372 3317.77 408.03C3317.46 407.709 3317.22 407.331 3317.06 406.916C3316.89 406.501 3316.82 406.057 3316.83 405.612C3316.84 405.167 3316.93 404.728 3317.11 404.32C3317.3 403.913 3317.56 403.546 3317.88 403.24C3326.02 395.409 3333.49 386.909 3340.21 377.83C3340.48 377.473 3340.82 377.173 3341.21 376.948C3341.59 376.722 3342.02 376.575 3342.47 376.516C3342.91 376.456 3343.36 376.485 3343.8 376.601C3344.23 376.717 3344.63 376.917 3344.99 377.19C3345.71 377.737 3346.18 378.539 3346.32 379.429C3346.46 380.32 3346.25 381.23 3345.74 381.97C3338.77 391.303 3331.05 400.052 3322.66 408.13C3322.36 408.443 3321.99 408.693 3321.59 408.865C3321.19 409.036 3320.76 409.126 3320.32 409.13V409.09ZM2443.53 419.19C2443.07 419.209 2442.61 419.124 2442.18 418.94C2441.76 418.757 2441.38 418.48 2441.08 418.13C2433.04 409.689 2425.79 400.542 2419.39 390.8C2419.14 390.429 2418.97 390.012 2418.88 389.574C2418.8 389.136 2418.8 388.685 2418.9 388.248C2418.99 387.811 2419.17 387.398 2419.43 387.033C2419.68 386.667 2420.01 386.357 2420.39 386.12C2420.77 385.869 2421.19 385.695 2421.64 385.609C2422.09 385.524 2422.54 385.527 2422.99 385.621C2423.43 385.714 2423.86 385.894 2424.23 386.151C2424.6 386.409 2424.92 386.738 2425.17 387.12C2431.42 396.481 2438.45 405.301 2446.17 413.49C2446.47 413.818 2446.71 414.202 2446.86 414.62C2447.01 415.039 2447.08 415.483 2447.06 415.929C2447.04 416.374 2446.93 416.811 2446.75 417.214C2446.56 417.618 2446.29 417.98 2445.96 418.28C2445.66 418.594 2445.29 418.844 2444.89 419.015C2444.49 419.187 2444.06 419.277 2443.62 419.28L2443.53 419.19ZM3041.92 437.38C3041.38 437.385 3040.85 437.263 3040.37 437.023C3039.89 436.784 3039.47 436.433 3039.15 436C3032.15 426.53 3025.54 417 3019.59 407.5C3019.11 406.739 3018.95 405.818 3019.15 404.94C3019.35 404.063 3019.89 403.3 3020.65 402.82C3021.41 402.34 3022.33 402.182 3023.21 402.381C3024.09 402.579 3024.85 403.119 3025.33 403.88C3031.18 413.13 3037.66 422.6 3044.68 431.96C3044.95 432.315 3045.15 432.72 3045.27 433.153C3045.39 433.585 3045.42 434.037 3045.36 434.481C3045.3 434.925 3045.15 435.353 3044.93 435.741C3044.71 436.129 3044.41 436.468 3044.05 436.74C3043.42 437.16 3042.68 437.383 3041.92 437.38ZM3264.28 448.38C3263.64 448.392 3263 448.218 3262.46 447.879C3261.91 447.54 3261.47 447.051 3261.2 446.47C3261 446.066 3260.89 445.627 3260.86 445.178C3260.83 444.729 3260.9 444.279 3261.04 443.854C3261.19 443.429 3261.42 443.038 3261.72 442.703C3262.02 442.367 3262.38 442.094 3262.79 441.9C3272.87 436.89 3282.57 431.13 3291.79 424.67C3292.16 424.384 3292.58 424.177 3293.03 424.059C3293.48 423.942 3293.95 423.917 3294.41 423.987C3294.87 424.057 3295.32 424.219 3295.71 424.465C3296.11 424.711 3296.45 425.034 3296.72 425.416C3296.98 425.798 3297.17 426.23 3297.27 426.686C3297.36 427.142 3297.36 427.613 3297.27 428.069C3297.18 428.526 3296.99 428.959 3296.73 429.343C3296.46 429.726 3296.12 430.052 3295.73 430.3C3286.2 436.918 3276.22 442.853 3265.85 448.06C3265.34 448.27 3264.8 448.379 3264.25 448.38H3264.28ZM2497.02 461.91C2496.38 461.884 2495.76 461.702 2495.21 461.38C2485.3 455.404 2475.78 448.797 2466.71 441.6C2466.04 441.023 2465.62 440.21 2465.54 439.331C2465.46 438.452 2465.72 437.576 2466.28 436.887C2466.83 436.198 2467.62 435.749 2468.5 435.636C2469.38 435.523 2470.26 435.754 2470.97 436.28C2479.86 443.265 2489.16 449.7 2498.83 455.55C2499.6 456.022 2500.15 456.777 2500.37 457.651C2500.59 458.526 2500.46 459.452 2500 460.23C2499.69 460.746 2499.25 461.172 2498.72 461.47C2498.2 461.767 2497.6 461.926 2497 461.93L2497.02 461.91ZM3200.79 474.35C3200.07 474.34 3199.37 474.111 3198.78 473.693C3198.19 473.275 3197.75 472.688 3197.5 472.01C3197.35 471.585 3197.28 471.134 3197.31 470.683C3197.33 470.233 3197.45 469.792 3197.65 469.386C3197.84 468.98 3198.12 468.617 3198.46 468.319C3198.8 468.021 3199.19 467.794 3199.62 467.65C3210.79 463.82 3221.53 459.78 3231.62 455.74C3232.46 455.443 3233.38 455.48 3234.19 455.846C3235 456.211 3235.63 456.876 3235.96 457.7C3236.29 458.525 3236.29 459.445 3235.96 460.269C3235.63 461.093 3234.99 461.756 3234.18 462.12C3223.97 466.12 3213.12 470.2 3201.85 474.12C3201.5 474.238 3201.14 474.308 3200.78 474.33L3200.79 474.35ZM3086.48 489.66C3086.02 489.666 3085.56 489.575 3085.14 489.392C3084.72 489.21 3084.34 488.94 3084.03 488.6C3075.84 480.2 3068.03 471.6 3060.85 463.08C3060.56 462.738 3060.33 462.341 3060.19 461.913C3060.05 461.485 3060 461.033 3060.03 460.583C3060.07 460.134 3060.19 459.696 3060.39 459.294C3060.6 458.891 3060.88 458.533 3061.22 458.24C3061.56 457.946 3061.96 457.723 3062.39 457.583C3062.82 457.443 3063.27 457.388 3063.72 457.423C3064.17 457.457 3064.6 457.579 3065.01 457.783C3065.41 457.987 3065.77 458.268 3066.06 458.61C3073.18 467.01 3080.95 475.52 3089.06 483.92C3089.66 484.581 3089.98 485.446 3089.96 486.337C3089.94 487.228 3089.58 488.078 3088.95 488.71C3088.28 489.327 3087.42 489.682 3086.51 489.71L3086.48 489.66ZM2558.8 491.55C2558.39 491.529 2558 491.42 2557.64 491.23C2546.58 487.08 2535.84 482.51 2525.73 477.72C2524.92 477.317 2524.3 476.613 2524 475.759C2523.71 474.905 2523.76 473.968 2524.14 473.15C2524.55 472.347 2525.25 471.734 2526.11 471.438C2526.96 471.142 2527.89 471.186 2528.71 471.56C2538.6 476.23 2549.13 480.7 2560.08 484.85C2560.84 485.136 2561.48 485.684 2561.88 486.395C2562.28 487.107 2562.42 487.938 2562.27 488.74C2562.11 489.542 2561.68 490.264 2561.05 490.778C2560.41 491.293 2559.62 491.566 2558.8 491.55ZM3134.97 493.99C3134.2 493.97 3133.47 493.699 3132.87 493.218C3132.27 492.738 3131.85 492.074 3131.67 491.33C3131.56 490.897 3131.53 490.447 3131.6 490.005C3131.66 489.562 3131.81 489.137 3132.04 488.752C3132.26 488.368 3132.57 488.032 3132.92 487.764C3133.28 487.496 3133.69 487.301 3134.12 487.19C3145.28 484.32 3156.45 481.19 3167.12 478.04C3167.56 477.891 3168.03 477.833 3168.49 477.869C3168.95 477.905 3169.4 478.034 3169.81 478.248C3170.22 478.463 3170.59 478.759 3170.88 479.118C3171.18 479.477 3171.4 479.892 3171.53 480.338C3171.66 480.783 3171.69 481.251 3171.64 481.712C3171.58 482.173 3171.43 482.617 3171.2 483.019C3170.97 483.421 3170.66 483.772 3170.29 484.051C3169.91 484.329 3169.49 484.53 3169.04 484.64C3158.3 487.83 3147.13 490.91 3135.86 493.89C3135.54 493.89 3135.33 493.99 3135.01 493.99H3134.97ZM3067.97 509.09C3067.16 509.078 3066.38 508.786 3065.76 508.262C3065.14 507.739 3064.72 507.018 3064.57 506.22C3064.49 505.78 3064.5 505.329 3064.59 504.893C3064.69 504.456 3064.87 504.043 3065.13 503.677C3065.38 503.311 3065.71 503 3066.09 502.762C3066.47 502.524 3066.89 502.364 3067.33 502.29C3078.61 500.05 3089.88 497.72 3100.83 495.29C3101.72 495.079 3102.65 495.23 3103.43 495.707C3104.21 496.185 3104.77 496.952 3104.98 497.84C3105.17 498.742 3104.99 499.682 3104.5 500.458C3104 501.234 3103.22 501.784 3102.32 501.99C3091.32 504.43 3079.99 506.77 3068.61 508.99C3068.4 508.99 3068.18 509.09 3067.97 509.09ZM2624.52 511.33C2624.31 511.33 2623.99 511.22 2623.78 511.22C2612.3 508.46 2601.13 505.48 2590.39 502.29C2589.52 502.032 2588.78 501.44 2588.34 500.642C2587.9 499.844 2587.8 498.905 2588.05 498.03C2588.34 497.159 2588.96 496.433 2589.77 495.999C2590.58 495.564 2591.52 495.454 2592.41 495.69C2602.94 498.89 2614 501.86 2625.41 504.52C2626.24 504.713 2626.97 505.207 2627.46 505.908C2627.95 506.609 2628.16 507.466 2628.05 508.313C2627.95 509.161 2627.53 509.938 2626.88 510.495C2626.23 511.053 2625.4 511.35 2624.55 511.33H2624.52ZM3000.23 520.26C2999.36 520.252 2998.53 519.917 2997.91 519.321C2997.28 518.726 2996.9 517.914 2996.85 517.051C2996.79 516.187 2997.07 515.335 2997.62 514.667C2998.17 513.999 2998.95 513.564 2999.81 513.45C3011.08 511.86 3022.46 510.16 3033.62 508.35C3034.51 508.208 3035.42 508.425 3036.15 508.953C3036.87 509.481 3037.36 510.276 3037.5 511.165C3037.65 512.053 3037.43 512.962 3036.9 513.69C3036.37 514.419 3035.58 514.908 3034.69 515.05C3023.52 516.96 3012.04 518.66 3000.69 520.26H3000.23ZM2692.05 523.77C2691.9 523.786 2691.75 523.747 2691.63 523.66C2680.04 522.07 2668.55 520.26 2657.63 518.24C2657.18 518.176 2656.76 518.021 2656.37 517.785C2655.99 517.549 2655.65 517.237 2655.39 516.868C2655.14 516.499 2654.95 516.081 2654.86 515.639C2654.77 515.197 2654.77 514.742 2654.86 514.3C2654.93 513.859 2655.1 513.437 2655.34 513.059C2655.57 512.68 2655.89 512.353 2656.25 512.097C2656.62 511.84 2657.03 511.658 2657.47 511.563C2657.91 511.467 2658.36 511.46 2658.8 511.54C2669.8 513.54 2681.13 515.37 2692.61 516.96C2693.05 517.015 2693.48 517.158 2693.87 517.382C2694.25 517.607 2694.59 517.906 2694.86 518.264C2695.13 518.622 2695.32 519.03 2695.43 519.464C2695.53 519.898 2695.55 520.349 2695.48 520.79C2695.37 521.617 2694.97 522.378 2694.34 522.929C2693.72 523.481 2692.91 523.787 2692.08 523.79L2692.05 523.77ZM2931.96 527.92C2931.09 527.926 2930.25 527.599 2929.62 527.005C2928.99 526.411 2928.61 525.596 2928.56 524.73C2928.48 523.828 2928.76 522.93 2929.33 522.232C2929.91 521.534 2930.74 521.091 2931.64 521C2943.02 520 2954.5 519 2965.78 517.71C2966.23 517.648 2966.69 517.678 2967.12 517.796C2967.56 517.915 2967.97 518.12 2968.33 518.4C2968.69 518.68 2968.98 519.028 2969.2 519.425C2969.42 519.822 2969.56 520.259 2969.61 520.71C2969.66 521.164 2969.62 521.623 2969.49 522.062C2969.36 522.5 2969.15 522.909 2968.86 523.264C2968.57 523.619 2968.22 523.914 2967.82 524.131C2967.42 524.348 2966.97 524.484 2966.52 524.53C2955.25 525.81 2943.66 526.87 2932.28 527.83C2932.24 527.872 2932.19 527.903 2932.13 527.922C2932.08 527.942 2932.02 527.948 2931.96 527.94V527.92ZM2760.43 530.55H2760.22C2748.63 529.8 2737.03 528.85 2725.87 527.78C2725.41 527.761 2724.95 527.648 2724.53 527.448C2724.11 527.248 2723.74 526.964 2723.43 526.614C2723.13 526.264 2722.89 525.856 2722.75 525.414C2722.61 524.971 2722.56 524.505 2722.6 524.042C2722.64 523.58 2722.78 523.131 2723.01 522.723C2723.23 522.315 2723.53 521.957 2723.9 521.671C2724.26 521.384 2724.68 521.175 2725.13 521.056C2725.58 520.938 2726.05 520.911 2726.51 520.98C2737.67 522.04 2749.16 522.98 2760.64 523.64C2761.54 523.697 2762.38 524.108 2762.98 524.785C2763.58 525.462 2763.88 526.348 2763.83 527.25C2763.79 528.128 2763.41 528.958 2762.78 529.571C2762.15 530.183 2761.31 530.533 2760.43 530.55ZM2863.37 531.93C2862.49 531.913 2861.65 531.563 2861.02 530.951C2860.39 530.338 2860.01 529.508 2859.97 528.63C2859.94 527.719 2860.27 526.835 2860.89 526.161C2861.5 525.488 2862.35 525.079 2863.26 525.02C2874.54 524.7 2886.13 524.17 2897.51 523.53C2898.41 523.48 2899.29 523.787 2899.97 524.384C2900.64 524.981 2901.06 525.82 2901.12 526.72C2901.17 527.632 2900.87 528.53 2900.28 529.224C2899.68 529.917 2898.84 530.353 2897.93 530.44C2886.45 531.08 2874.85 531.61 2863.48 531.93H2863.37ZM2826.47 532.46C2815.83 532.46 2805.09 532.36 2794.67 532.04C2794.21 532.045 2793.75 531.957 2793.33 531.781C2792.9 531.605 2792.52 531.345 2792.2 531.016C2791.87 530.687 2791.62 530.296 2791.45 529.867C2791.29 529.438 2791.21 528.98 2791.22 528.52C2791.24 528.06 2791.35 527.608 2791.54 527.19C2791.73 526.773 2792.01 526.4 2792.35 526.092C2792.7 525.785 2793.1 525.55 2793.53 525.402C2793.97 525.253 2794.43 525.195 2794.89 525.23C2805.41 525.44 2816.15 525.66 2826.79 525.66H2829.02C2829.92 525.645 2830.79 525.99 2831.44 526.617C2832.09 527.244 2832.46 528.103 2832.47 529.005C2832.49 529.907 2832.15 530.777 2831.52 531.425C2830.89 532.073 2830.03 532.445 2829.13 532.46H2826.47ZM3136.35 537.04C3135.53 537.033 3134.73 536.727 3134.12 536.18C3125.29 528.53 3116.68 520.77 3108.49 513C3108.17 512.694 3107.91 512.327 3107.73 511.921C3107.55 511.515 3107.45 511.077 3107.44 510.633C3107.43 510.189 3107.51 509.747 3107.67 509.333C3107.83 508.918 3108.07 508.54 3108.38 508.22C3109 507.551 3109.87 507.154 3110.78 507.113C3111.69 507.072 3112.59 507.39 3113.27 508C3121.36 515.66 3129.86 523.42 3138.58 531C3139.26 531.613 3139.68 532.469 3139.74 533.385C3139.8 534.301 3139.5 535.203 3138.9 535.9C3138.58 536.265 3138.19 536.558 3137.75 536.759C3137.31 536.961 3136.83 537.067 3136.35 537.07V537.04ZM3189.84 580.1C3189.11 580.107 3188.39 579.843 3187.84 579.36C3178.59 572.45 3169.34 565.36 3160.51 558.3C3160.13 558.023 3159.82 557.672 3159.58 557.269C3159.35 556.867 3159.2 556.42 3159.14 555.957C3159.08 555.493 3159.12 555.023 3159.25 554.575C3159.38 554.126 3159.6 553.709 3159.89 553.348C3160.19 552.987 3160.56 552.691 3160.97 552.476C3161.38 552.261 3161.84 552.133 3162.3 552.1C3162.77 552.066 3163.24 552.128 3163.68 552.281C3164.12 552.434 3164.53 552.675 3164.87 552.99C3173.59 559.99 3182.74 566.99 3191.87 573.83C3192.25 574.097 3192.57 574.437 3192.81 574.829C3193.05 575.222 3193.21 575.66 3193.28 576.116C3193.35 576.572 3193.33 577.038 3193.22 577.485C3193.1 577.933 3192.9 578.352 3192.62 578.72C3192.29 579.145 3191.87 579.49 3191.39 579.729C3190.91 579.968 3190.39 580.095 3189.85 580.1H3189.84ZM3246.31 619.24C3245.63 619.263 3244.96 619.078 3244.39 618.71C3234.72 612.43 3225.15 606.05 3215.79 599.56C3215.06 599.026 3214.56 598.231 3214.41 597.341C3214.25 596.45 3214.44 595.533 3214.94 594.78C3215.2 594.408 3215.52 594.09 3215.9 593.846C3216.28 593.601 3216.71 593.435 3217.15 593.355C3217.6 593.276 3218.05 593.286 3218.49 593.385C3218.93 593.484 3219.35 593.669 3219.72 593.93C3228.97 600.31 3238.55 606.8 3248.22 612.93C3248.6 613.177 3248.93 613.497 3249.19 613.873C3249.45 614.248 3249.63 614.671 3249.72 615.116C3249.81 615.562 3249.82 616.021 3249.73 616.468C3249.65 616.915 3249.47 617.341 3249.22 617.72C3248.9 618.188 3248.48 618.569 3247.97 618.829C3247.47 619.089 3246.91 619.22 3246.35 619.21L3246.31 619.24ZM3305.22 654.76C3304.62 654.783 3304.03 654.634 3303.52 654.33C3293.52 648.8 3283.52 642.95 3273.64 637C3273.25 636.77 3272.92 636.464 3272.66 636.102C3272.39 635.739 3272.2 635.326 3272.1 634.889C3272 634.451 3271.99 633.998 3272.07 633.557C3272.15 633.115 3272.32 632.694 3272.57 632.32C3273.04 631.55 3273.79 630.996 3274.67 630.777C3275.55 630.558 3276.47 630.692 3277.25 631.15C3287.04 637 3297.03 642.85 3306.82 648.38C3307.21 648.588 3307.56 648.871 3307.84 649.214C3308.12 649.557 3308.33 649.952 3308.46 650.377C3308.59 650.802 3308.63 651.248 3308.59 651.69C3308.54 652.131 3308.41 652.56 3308.2 652.95C3307.91 653.495 3307.48 653.951 3306.95 654.27C3306.42 654.588 3305.82 654.758 3305.2 654.76H3305.22ZM3366.22 686.23C3365.74 686.228 3365.27 686.119 3364.84 685.91C3354.63 681.13 3344.21 676.02 3333.84 670.6C3333.04 670.19 3332.43 669.478 3332.15 668.62C3331.87 667.762 3331.95 666.828 3332.35 666.025C3332.76 665.221 3333.48 664.613 3334.33 664.335C3335.19 664.056 3336.13 664.13 3336.93 664.54C3347.24 669.86 3357.56 674.96 3367.66 679.64C3368.47 680.039 3369.11 680.735 3369.42 681.586C3369.74 682.436 3369.72 683.375 3369.36 684.21C3369.06 684.805 3368.61 685.307 3368.05 685.66C3367.48 686.013 3366.83 686.203 3366.17 686.21L3366.22 686.23ZM3429.75 712.55C3429.35 712.521 3428.96 712.447 3428.58 712.33C3418.26 708.61 3407.42 704.46 3396.36 699.79C3395.95 699.615 3395.57 699.361 3395.26 699.042C3394.95 698.723 3394.7 698.345 3394.53 697.93C3394.36 697.515 3394.28 697.071 3394.28 696.623C3394.28 696.175 3394.38 695.732 3394.55 695.32C3394.72 694.908 3394.98 694.534 3395.3 694.22C3395.62 693.905 3395.99 693.657 3396.41 693.489C3396.83 693.321 3397.27 693.236 3397.72 693.24C3398.16 693.244 3398.61 693.335 3399.02 693.51C3409.97 698.08 3420.71 702.23 3430.92 705.85C3431.78 706.15 3432.48 706.776 3432.88 707.592C3433.28 708.408 3433.34 709.349 3433.05 710.21C3432.79 710.879 3432.34 711.457 3431.75 711.872C3431.16 712.288 3430.47 712.524 3429.75 712.55Z" fill="white"/>
<path d="M3758.98 817.55C3756.75 816.06 3687.74 788.2 3687.74 788.2C3670.61 730.2 3655.94 679.62 3639.56 619.64L3624.78 614.43L3625.31 659.63C3620.95 659.31 3613.93 658.99 3613.31 661.12C3612.56 663.46 3620.64 667.18 3625.43 669.2L3625.64 694.72C3625.64 694.72 3611.39 692.59 3610.43 695.78C3609.47 698.97 3625.85 705.14 3625.85 705.14L3626.07 727.79C3626.07 727.79 3610.97 726.09 3610.22 730.88C3609.47 735.67 3626.6 742.04 3626.6 742.04L3627.98 764.91C3596.02 751.863 3563.31 740.714 3530.04 731.52L3511.11 679.52L3497.71 676.52C3506.11 736.28 3506.01 729.26 3462.09 766.59L3471.87 775.2L3522.81 750.64C3522.81 750.64 3527.59 753.64 3541.74 760.1C3555.89 766.56 3615.96 792.54 3615.96 792.54L3599.37 806.79C3599.37 806.79 3581.93 800.3 3580.23 802.79C3578.53 805.28 3594.16 814.06 3594.16 814.06L3574.92 833.94C3574.92 833.94 3560.45 827.56 3559.18 830.86C3557.91 834.16 3568.11 840.54 3568.11 840.54L3551.73 857.13C3546.73 855.85 3538.44 854.04 3537.73 856.13C3537.02 858.22 3541.45 861.55 3545.06 863.89L3512.06 897.28L3528.97 905.9C3580.54 872.9 3625.74 843.37 3678.27 815.19C3736.01 835.5 3745.8 839.33 3745.8 839.33C3776.21 844.96 3791.1 838.33 3758.98 817.53V817.55Z" fill="white"/>
<path d="M378.867 571.576C379.046 571.753 379.254 571.897 379.482 572.001C385.035 575.1 390.062 579.058 394.378 583.728C394.555 583.916 394.767 584.068 395.002 584.175C395.237 584.281 395.491 584.341 395.749 584.349C396.007 584.358 396.264 584.315 396.506 584.225C396.748 584.134 396.969 583.996 397.158 583.82C397.346 583.643 397.498 583.431 397.605 583.196C397.712 582.961 397.771 582.707 397.779 582.449C397.788 582.191 397.746 581.934 397.655 581.692C397.564 581.45 397.426 581.229 397.25 581.04C392.662 576.061 387.3 571.855 381.371 568.584C381.147 568.455 380.9 568.371 380.643 568.338C380.386 568.305 380.126 568.322 379.876 568.39C379.626 568.458 379.392 568.575 379.188 568.733C378.983 568.891 378.812 569.089 378.684 569.314C378.487 569.667 378.399 570.07 378.432 570.473C378.464 570.876 378.616 571.26 378.867 571.576ZM409.878 619.028C410.089 619.25 410.346 619.424 410.63 619.539C410.914 619.654 411.22 619.707 411.526 619.694C411.784 619.673 412.035 619.601 412.264 619.482C412.493 619.363 412.696 619.198 412.861 618.999C413.026 618.8 413.15 618.57 413.224 618.322C413.298 618.075 413.323 617.815 413.295 617.558C413.174 615.605 412.927 613.59 412.686 611.511C411.915 606.8 410.497 602.218 408.471 597.895C408.26 597.425 407.871 597.058 407.39 596.875C406.908 596.692 406.374 596.708 405.904 596.919C405.434 597.13 405.067 597.519 404.884 598C404.701 598.481 404.717 599.016 404.928 599.486C406.765 603.508 408.059 607.756 408.775 612.12C409.022 614.009 409.263 615.967 409.384 617.862C409.422 618.288 409.595 618.691 409.878 619.011V619.028ZM340.92 568.274C341.196 568.585 341.56 568.806 341.963 568.909C342.366 569.011 342.791 568.99 343.182 568.848C349.014 566.535 355.317 565.657 361.559 566.287C361.816 566.311 362.075 566.285 362.321 566.209C362.568 566.133 362.797 566.009 362.996 565.844C363.194 565.68 363.358 565.478 363.479 565.25C363.6 565.022 363.674 564.772 363.698 564.516C363.722 564.259 363.696 564 363.62 563.753C363.544 563.507 363.42 563.278 363.255 563.079C363.091 562.88 362.889 562.716 362.661 562.596C362.433 562.475 362.183 562.401 361.927 562.376C355.061 561.672 348.126 562.635 341.712 565.185C341.47 565.279 341.249 565.42 341.062 565.601C340.875 565.782 340.725 565.998 340.623 566.237C340.52 566.476 340.466 566.733 340.464 566.993C340.462 567.253 340.511 567.511 340.61 567.752C340.657 567.967 340.762 568.166 340.914 568.326L340.92 568.274ZM402.051 656.947C402.202 657.083 402.366 657.206 402.539 657.314C402.756 657.459 403.001 657.557 403.258 657.601C403.515 657.646 403.778 657.636 404.031 657.573C404.284 657.51 404.521 657.394 404.727 657.234C404.933 657.074 405.103 656.872 405.226 656.642C408.729 650.806 411.151 644.387 412.376 637.692C412.468 637.176 412.353 636.645 412.055 636.215C411.756 635.785 411.3 635.49 410.785 635.395C410.532 635.349 410.273 635.355 410.022 635.41C409.772 635.466 409.535 635.571 409.325 635.719C409.115 635.867 408.936 636.055 408.8 636.272C408.663 636.49 408.571 636.732 408.528 636.985C407.362 643.213 405.107 649.187 401.867 654.633C401.647 654.985 401.547 655.398 401.58 655.811C401.613 656.225 401.778 656.617 402.051 656.93V656.947ZM313.464 595.437C313.63 595.611 313.824 595.754 314.038 595.862C314.262 595.983 314.508 596.059 314.762 596.085C315.016 596.111 315.272 596.087 315.516 596.013C315.76 595.939 315.987 595.818 316.184 595.656C316.381 595.494 316.543 595.295 316.663 595.07C319.716 589.448 323.494 584.252 327.901 579.616C328.085 579.429 328.229 579.208 328.326 578.964C328.422 578.721 328.469 578.46 328.463 578.199C328.457 577.937 328.399 577.679 328.291 577.44C328.184 577.201 328.03 576.986 327.838 576.808C327.654 576.631 327.437 576.492 327.199 576.4C326.961 576.307 326.708 576.262 326.452 576.268C326.197 576.274 325.946 576.33 325.713 576.434C325.479 576.537 325.269 576.686 325.093 576.871C320.448 581.764 316.465 587.245 313.246 593.174C313.041 593.529 312.954 593.938 312.997 594.345C313.041 594.752 313.212 595.134 313.487 595.437H313.464ZM47.3254 288.887C47.5107 289.097 47.7401 289.264 47.9973 289.375C48.2296 289.489 48.4823 289.556 48.7405 289.571C48.9988 289.586 49.2575 289.55 49.5017 289.465C49.7459 289.379 49.9706 289.246 50.1629 289.073C50.3552 288.9 50.5111 288.69 50.6217 288.456C53.3197 282.569 56.4225 276.876 59.9076 271.418C60.1624 270.973 60.236 270.447 60.1131 269.95C59.9902 269.452 59.6803 269.021 59.2478 268.746C58.8153 268.471 58.2934 268.373 57.7906 268.473C57.2879 268.573 56.8429 268.862 56.5482 269.282C53.015 274.903 49.8332 280.737 47.0211 286.751C46.8701 287.1 46.8187 287.485 46.8724 287.862C46.9261 288.239 47.0829 288.594 47.3254 288.887ZM372.212 681.577C372.471 681.911 372.835 682.149 373.244 682.253C373.654 682.357 374.087 682.321 374.474 682.151C380.677 679.5 386.507 676.05 391.817 671.889C392.018 671.73 392.185 671.532 392.31 671.307C392.434 671.082 392.512 670.835 392.54 670.58C392.569 670.325 392.546 670.067 392.474 669.82C392.403 669.574 392.283 669.344 392.122 669.144C391.971 668.932 391.778 668.753 391.555 668.618C391.333 668.483 391.084 668.396 390.826 668.361C390.568 668.327 390.306 668.346 390.055 668.418C389.805 668.489 389.572 668.611 389.371 668.777C384.334 672.751 378.79 676.034 372.884 678.539C372.416 678.752 372.051 679.142 371.868 679.622C371.685 680.103 371.699 680.636 371.907 681.106C371.973 681.289 372.076 681.455 372.212 681.594V681.577ZM300.147 632.397C300.42 632.706 300.784 632.922 301.186 633.011C301.443 633.07 301.709 633.077 301.968 633.032C302.227 632.987 302.475 632.89 302.697 632.748C302.918 632.606 303.109 632.421 303.258 632.204C303.407 631.986 303.511 631.742 303.564 631.484C304.957 625.16 306.711 618.921 308.818 612.797C308.992 612.312 308.969 611.779 308.754 611.311C308.54 610.843 308.15 610.478 307.67 610.293C307.168 610.118 306.617 610.147 306.136 610.375C305.656 610.603 305.284 611.011 305.103 611.511C302.914 617.786 301.119 624.192 299.728 630.691C299.641 630.991 299.635 631.308 299.711 631.611C299.787 631.913 299.941 632.19 300.158 632.414L300.147 632.397ZM35.4783 326.261C35.7578 326.627 36.1705 326.868 36.6268 326.932C36.88 326.979 37.1399 326.974 37.3913 326.919C37.6427 326.863 37.8806 326.759 38.0911 326.611C38.3017 326.463 38.4807 326.274 38.6177 326.056C38.7548 325.839 38.8471 325.596 38.8894 325.342C40.0952 318.988 41.6636 312.709 43.5869 306.534C43.7373 306.032 43.688 305.492 43.4494 305.025C43.2108 304.559 42.8013 304.202 42.3063 304.031C42.062 303.954 41.805 303.927 41.55 303.95C41.295 303.973 41.0471 304.046 40.8204 304.165C40.5936 304.284 40.3926 304.446 40.2288 304.643C40.065 304.84 39.9416 305.067 39.8657 305.311C37.8673 311.641 36.2564 318.087 35.0418 324.612C34.9828 324.901 34.9904 325.2 35.064 325.485C35.1377 325.771 35.2754 326.036 35.4668 326.261H35.4783ZM334.029 690.766C334.236 691.017 334.501 691.214 334.801 691.341C335.101 691.468 335.427 691.521 335.751 691.495C342.365 690.814 348.931 689.734 355.414 688.262C355.672 688.208 355.917 688.103 356.134 687.954C356.352 687.804 356.537 687.613 356.679 687.391C356.821 687.169 356.918 686.921 356.963 686.661C357.008 686.402 357.001 686.135 356.942 685.878C356.805 685.377 356.483 684.947 356.04 684.675C355.597 684.403 355.068 684.31 354.559 684.414C348.242 685.869 341.837 686.908 335.384 687.527C335.026 687.563 334.685 687.696 334.397 687.91C334.108 688.124 333.882 688.412 333.744 688.743C333.605 689.075 333.558 689.438 333.608 689.794C333.658 690.149 333.804 690.485 334.029 690.766ZM295.185 671.407C295.352 671.62 295.566 671.791 295.81 671.908C296.054 672.025 296.322 672.083 296.592 672.079C297.119 672.102 297.633 671.916 298.023 671.561C298.413 671.206 298.646 670.71 298.671 670.184C298.849 663.769 299.4 657.24 300.193 650.705C300.225 650.447 300.206 650.185 300.136 649.935C300.067 649.685 299.949 649.451 299.789 649.247C299.629 649.042 299.43 648.871 299.203 648.744C298.977 648.617 298.728 648.536 298.47 648.505C297.954 648.465 297.442 648.62 297.035 648.939C296.628 649.258 296.355 649.718 296.271 650.228C295.478 656.884 294.927 663.539 294.68 670.075C294.684 670.565 294.856 671.04 295.168 671.418L295.185 671.407ZM32.4232 365.466C32.6136 365.682 32.8489 365.854 33.1127 365.97C33.3766 366.086 33.6625 366.143 33.9507 366.138C34.2101 366.138 34.4668 366.085 34.7049 365.983C34.9431 365.88 35.1576 365.73 35.3352 365.541C35.5129 365.352 35.6499 365.128 35.7377 364.884C35.8255 364.64 35.8623 364.381 35.8458 364.122C35.7252 357.529 35.9032 350.914 36.4201 344.643C36.4388 344.386 36.406 344.127 36.3236 343.883C36.2413 343.638 36.111 343.412 35.9404 343.219C35.7699 343.025 35.5624 342.868 35.3302 342.755C35.098 342.643 34.8458 342.578 34.5882 342.564C34.3338 342.537 34.0767 342.562 33.8325 342.638C33.5882 342.714 33.3619 342.838 33.1674 343.004C32.9729 343.171 32.8143 343.374 32.7011 343.604C32.588 343.833 32.5227 344.083 32.5093 344.338C32.0212 350.81 31.8374 357.466 31.935 364.185C31.9397 364.657 32.1128 365.111 32.4232 365.466ZM437.127 851.939C437.314 852.164 437.547 852.347 437.811 852.473C438.074 852.6 438.362 852.669 438.655 852.675C445.338 852.559 452 851.865 458.564 850.602C458.817 850.553 459.058 850.456 459.273 850.314C459.488 850.173 459.673 849.991 459.817 849.778C459.962 849.565 460.063 849.326 460.115 849.074C460.167 848.822 460.169 848.563 460.121 848.31C460.072 848.058 459.975 847.817 459.834 847.602C459.692 847.387 459.51 847.202 459.297 847.057C459.085 846.913 458.845 846.812 458.593 846.76C458.342 846.708 458.082 846.706 457.829 846.754C451.489 847.972 445.053 848.625 438.597 848.706C438.339 848.711 438.085 848.767 437.849 848.871C437.613 848.975 437.4 849.126 437.224 849.314C437.047 849.502 436.91 849.723 436.82 849.965C436.731 850.207 436.69 850.464 436.702 850.722C436.703 851.164 436.853 851.593 437.127 851.939ZM36.4545 404.55C36.6714 404.817 36.956 405.019 37.2783 405.138C37.6007 405.256 37.9489 405.285 38.2864 405.222C38.5401 405.181 38.7829 405.089 39.0007 404.953C39.2186 404.816 39.407 404.638 39.5551 404.427C39.7032 404.217 39.8079 403.98 39.8632 403.729C39.9185 403.478 39.9233 403.218 39.8772 402.965C38.7286 396.43 37.7983 389.895 37.1264 383.607C37.0992 383.346 37.0207 383.092 36.8953 382.862C36.7698 382.631 36.6001 382.427 36.3957 382.262C36.1913 382.097 35.9563 381.975 35.7042 381.901C35.4522 381.827 35.188 381.804 34.927 381.832C34.4054 381.9 33.9301 382.167 33.6004 382.577C33.2708 382.986 33.1124 383.508 33.1582 384.032C33.8933 390.446 34.8064 397.039 36.0296 403.637C36.069 403.98 36.2181 404.3 36.4545 404.55ZM296.914 710.75C297.116 711.004 297.382 711.2 297.685 711.318C297.987 711.436 298.316 711.472 298.637 711.422C298.896 711.394 299.147 711.315 299.374 711.189C299.602 711.062 299.802 710.892 299.963 710.687C300.124 710.481 300.242 710.246 300.31 709.995C300.378 709.743 300.395 709.481 300.359 709.222C299.622 703.491 299.213 697.721 299.136 691.943C304.816 692.31 310.432 692.517 315.928 692.517C316.188 692.514 316.446 692.46 316.686 692.357C316.925 692.254 317.142 692.105 317.324 691.919C317.506 691.732 317.649 691.511 317.746 691.269C317.842 691.027 317.89 690.768 317.886 690.507C317.872 689.992 317.661 689.503 317.296 689.138C316.932 688.774 316.443 688.563 315.928 688.549C309.576 688.549 303.047 688.308 296.403 687.82C295.886 687.775 295.372 687.935 294.972 688.266C294.572 688.597 294.319 689.072 294.266 689.588C294.231 689.949 294.298 690.313 294.461 690.637C294.623 690.961 294.874 691.233 295.185 691.42C295.254 697.546 295.682 703.663 296.466 709.739C296.528 710.125 296.697 710.485 296.954 710.779L296.914 710.75ZM398.473 845.703C398.704 845.973 398.998 846.182 399.329 846.312C405.628 848.497 412.105 850.132 418.687 851.199C418.945 851.247 419.209 851.242 419.464 851.184C419.72 851.126 419.96 851.017 420.172 850.862C420.383 850.708 420.561 850.512 420.694 850.286C420.827 850.061 420.912 849.81 420.944 849.551C421.026 849.041 420.907 848.52 420.611 848.098C420.315 847.675 419.866 847.385 419.359 847.288C412.991 846.236 406.72 844.663 400.609 842.585C400.365 842.499 400.105 842.463 399.847 842.478C399.588 842.493 399.335 842.559 399.102 842.673C398.869 842.787 398.661 842.946 398.49 843.141C398.319 843.335 398.188 843.562 398.105 843.808C397.994 844.128 397.969 844.472 398.033 844.805C398.098 845.138 398.25 845.448 398.473 845.703ZM255.756 685.224C256.01 685.551 256.38 685.769 256.79 685.833C263.267 687.303 269.803 688.463 276.315 689.439C276.568 689.482 276.828 689.473 277.078 689.412C277.328 689.352 277.563 689.241 277.768 689.087C277.974 688.933 278.146 688.739 278.275 688.516C278.403 688.293 278.484 688.046 278.514 687.791C278.559 687.533 278.552 687.27 278.493 687.015C278.433 686.761 278.324 686.521 278.17 686.31C278.016 686.099 277.821 685.921 277.597 685.786C277.373 685.652 277.125 685.564 276.866 685.528C270.457 684.615 263.979 683.392 257.628 681.985C257.123 681.898 256.603 682.008 256.176 682.292C255.749 682.576 255.447 683.013 255.331 683.513C255.24 683.812 255.231 684.13 255.307 684.434C255.383 684.737 255.54 685.014 255.762 685.235L255.756 685.224ZM45.9185 442.779C46.1638 443.078 46.4933 443.296 46.8641 443.404C47.2348 443.513 47.6297 443.507 47.9973 443.388C48.4941 443.235 48.9119 442.895 49.1627 442.44C49.4134 441.984 49.4774 441.449 49.3411 440.948C47.3254 434.596 45.5567 428.245 44.0291 422.077C43.9688 421.824 43.8593 421.586 43.7069 421.376C43.5545 421.166 43.3621 420.987 43.1408 420.851C42.9195 420.715 42.6736 420.624 42.4171 420.583C42.1606 420.542 41.8985 420.552 41.6459 420.613C41.3933 420.673 41.155 420.783 40.9447 420.935C40.7344 421.087 40.5561 421.28 40.4201 421.501C40.2841 421.722 40.1931 421.968 40.1521 422.225C40.1112 422.481 40.1212 422.743 40.1815 422.996C41.7665 429.313 43.541 435.699 45.5567 442.108C45.639 442.35 45.7612 442.577 45.9185 442.779ZM306.441 748.864C306.735 749.232 307.151 749.483 307.614 749.57C308.077 749.656 308.556 749.574 308.963 749.337C309.37 749.101 309.679 748.725 309.833 748.28C309.986 747.835 309.975 747.349 309.8 746.912C307.546 740.828 305.61 734.631 304 728.346C303.939 728.095 303.829 727.859 303.675 727.651C303.522 727.444 303.328 727.27 303.106 727.138C302.884 727.007 302.637 726.922 302.382 726.888C302.126 726.853 301.866 726.871 301.617 726.939C301.107 727.061 300.667 727.381 300.392 727.828C300.118 728.274 300.032 728.812 300.153 729.322C301.794 735.758 303.792 742.098 306.136 748.313C306.199 748.523 306.302 748.718 306.441 748.887V748.864ZM363.891 827.212C363.961 827.34 364.067 827.445 364.195 827.516C369.545 831.501 375.178 835.092 381.05 838.261C381.505 838.492 382.032 838.539 382.521 838.391C383.01 838.244 383.423 837.913 383.674 837.468C383.805 837.241 383.888 836.99 383.919 836.73C383.95 836.469 383.928 836.206 383.853 835.954C383.779 835.703 383.655 835.47 383.488 835.268C383.321 835.066 383.115 834.9 382.882 834.78C377.19 831.707 371.721 828.238 366.515 824.398C366.135 824.094 365.655 823.945 365.17 823.981C364.685 824.016 364.231 824.234 363.899 824.589C363.568 824.945 363.383 825.412 363.381 825.899C363.379 826.385 363.561 826.854 363.891 827.212ZM324.013 784.032C324.324 784.392 324.754 784.628 325.225 784.696C325.696 784.763 326.175 784.658 326.575 784.4C326.796 784.268 326.988 784.092 327.14 783.884C327.291 783.676 327.399 783.439 327.456 783.187C327.514 782.936 327.52 782.676 327.474 782.423C327.428 782.169 327.331 781.927 327.189 781.712C323.687 776.241 320.467 770.594 317.541 764.794C317.429 764.561 317.272 764.353 317.079 764.181C316.886 764.008 316.66 763.876 316.416 763.791C316.172 763.706 315.913 763.671 315.655 763.686C315.396 763.702 315.144 763.768 314.911 763.881C314.444 764.127 314.093 764.547 313.933 765.05C313.773 765.553 313.817 766.098 314.056 766.569C317.023 772.5 320.307 778.269 323.893 783.849C323.95 783.912 324.013 783.975 324.013 784.032ZM338.422 803.391C341.781 807.302 345.388 811.086 348.988 814.629C349.371 814.989 349.88 815.184 350.405 815.172C350.931 815.16 351.43 814.943 351.796 814.566C351.974 814.383 352.114 814.166 352.208 813.929C352.301 813.691 352.347 813.437 352.341 813.182C352.336 812.926 352.28 812.675 352.177 812.441C352.073 812.207 351.924 811.997 351.739 811.821C347.097 807.284 342.712 802.491 338.606 797.465C338.446 797.249 338.245 797.068 338.014 796.932C337.782 796.797 337.526 796.71 337.26 796.676C336.994 796.643 336.724 796.665 336.466 796.739C336.209 796.814 335.969 796.94 335.762 797.11C335.555 797.28 335.384 797.491 335.261 797.729C335.138 797.967 335.064 798.228 335.045 798.495C335.026 798.762 335.061 799.031 335.149 799.284C335.237 799.537 335.375 799.77 335.556 799.968C336.469 801.117 337.446 802.225 338.428 803.385L338.422 803.391ZM59.6033 479.728C59.8655 480.056 60.2279 480.29 60.6353 480.394C61.0427 480.497 61.4727 480.465 61.8601 480.302C62.3343 480.095 62.7086 479.71 62.9029 479.23C63.0971 478.751 63.0959 478.214 62.8996 477.735C60.2752 471.625 57.8919 465.457 55.6293 459.473C55.5411 459.233 55.4062 459.012 55.2323 458.824C55.0585 458.636 54.8492 458.485 54.6165 458.378C54.3838 458.271 54.1322 458.212 53.8763 458.202C53.6204 458.193 53.3653 458.235 53.1255 458.325C52.6335 458.514 52.2364 458.89 52.0212 459.371C51.8059 459.852 51.79 460.399 51.977 460.892C54.1764 466.939 56.6802 473.107 59.2472 479.268C59.333 479.456 59.4584 479.622 59.6147 479.757L59.6033 479.728ZM217.952 674.112C218.16 674.37 218.434 674.568 218.744 674.686C224.734 676.949 231.022 679.085 237.557 681.003C238.059 681.145 238.597 681.084 239.054 680.833C239.511 680.581 239.85 680.159 239.998 679.659C240.075 679.414 240.104 679.157 240.081 678.901C240.058 678.646 239.986 678.397 239.867 678.17C239.748 677.942 239.585 677.741 239.387 677.576C239.19 677.412 238.963 677.289 238.717 677.213C232.245 675.323 226.015 673.245 220.151 670.988C219.658 670.807 219.114 670.826 218.634 671.04C218.155 671.255 217.778 671.648 217.584 672.136C217.474 672.477 217.45 672.839 217.515 673.19C217.579 673.542 217.729 673.872 217.952 674.152V674.112ZM76.458 515.332C76.7465 515.682 77.1468 515.922 77.5915 516.011C78.0361 516.1 78.4978 516.033 78.8987 515.821C79.3482 515.558 79.6805 515.133 79.8277 514.634C79.975 514.134 79.9261 513.598 79.6911 513.133C76.636 507.327 73.7073 501.406 70.9623 495.606C70.8499 495.373 70.6928 495.165 70.4998 494.992C70.3068 494.82 70.0818 494.687 69.8375 494.602C69.5933 494.517 69.3346 494.48 69.0763 494.495C68.818 494.51 68.5651 494.575 68.3321 494.688C67.858 494.91 67.4901 495.309 67.3075 495.8C67.125 496.291 67.1423 496.834 67.3559 497.312C70.1641 503.175 73.156 509.102 76.2111 514.965C76.2636 515.105 76.3482 515.231 76.458 515.332ZM96.0578 549.53C96.3572 549.888 96.7779 550.123 97.2396 550.191C97.7014 550.259 98.1719 550.154 98.5616 549.898C98.7858 549.769 98.9816 549.596 99.1375 549.389C99.2933 549.183 99.406 548.948 99.4687 548.697C99.5314 548.446 99.5429 548.185 99.5025 547.929C99.4621 547.674 99.3706 547.429 99.2335 547.21C95.7534 541.651 92.394 535.972 89.1608 530.355C88.8977 529.906 88.4692 529.577 87.9669 529.44C87.4646 529.303 86.9285 529.367 86.4733 529.62C86.2451 529.745 86.0443 529.914 85.8831 530.118C85.7218 530.322 85.6033 530.557 85.5347 530.808C85.4661 531.059 85.4488 531.321 85.4837 531.578C85.5187 531.836 85.6052 532.084 85.7382 532.308C88.9771 537.987 92.394 543.667 95.874 549.283C95.9372 549.346 96.0004 549.467 96.0578 549.53ZM183.082 655.913C183.203 655.971 183.329 656.091 183.45 656.154C188.801 660.159 194.504 663.67 200.488 666.646C200.967 666.876 201.516 666.909 202.019 666.739C202.521 666.568 202.937 666.207 203.176 665.733C203.411 665.271 203.452 664.734 203.292 664.241C203.131 663.748 202.782 663.339 202.32 663.103C196.524 660.228 190.986 656.858 185.77 653.03C185.565 652.873 185.332 652.758 185.083 652.692C184.834 652.625 184.574 652.609 184.318 652.643C184.063 652.677 183.816 652.761 183.593 652.891C183.37 653.02 183.175 653.193 183.019 653.398C182.761 653.767 182.629 654.21 182.64 654.66C182.651 655.111 182.806 655.546 183.082 655.902V655.913ZM118.046 582.263C118.36 582.643 118.808 582.887 119.297 582.944C119.787 583.001 120.279 582.866 120.671 582.568C120.881 582.416 121.059 582.225 121.195 582.004C121.33 581.783 121.42 581.537 121.46 581.281C121.499 581.025 121.487 580.764 121.425 580.513C121.362 580.261 121.251 580.025 121.096 579.817C117.311 574.568 113.527 569.13 109.863 563.697C109.722 563.477 109.538 563.287 109.323 563.139C109.107 562.991 108.864 562.888 108.608 562.835C108.351 562.782 108.087 562.782 107.831 562.833C107.574 562.884 107.33 562.986 107.114 563.133C106.897 563.28 106.713 563.469 106.57 563.689C106.428 563.908 106.331 564.154 106.286 564.412C106.24 564.669 106.247 564.933 106.305 565.188C106.363 565.444 106.472 565.684 106.624 565.897C110.288 571.392 114.09 576.808 117.92 582.137C117.92 582.2 117.983 582.2 118.046 582.263ZM155.11 628.245H155.173C159.692 633.253 164.275 638.076 168.795 642.602C169.162 642.96 169.654 643.161 170.167 643.161C170.68 643.161 171.173 642.96 171.54 642.601C171.907 642.243 172.119 641.755 172.13 641.242C172.142 640.729 171.953 640.232 171.603 639.857C167.141 635.337 162.564 630.571 158.107 625.626C157.747 625.243 157.251 625.016 156.725 624.993C156.199 624.97 155.685 625.154 155.294 625.506C154.916 625.852 154.686 626.33 154.652 626.841C154.618 627.353 154.782 627.857 155.11 628.251V628.245ZM142.223 613.348C142.387 613.545 142.588 613.708 142.815 613.827C143.042 613.946 143.29 614.018 143.545 614.041C143.801 614.063 144.058 614.035 144.302 613.957C144.546 613.88 144.773 613.755 144.968 613.59C145.354 613.251 145.595 612.778 145.641 612.267C145.687 611.756 145.534 611.246 145.215 610.845C141.063 605.894 136.905 600.766 132.88 595.512C132.549 595.116 132.078 594.863 131.566 594.806C131.053 594.75 130.538 594.893 130.129 595.207C129.924 595.363 129.752 595.559 129.622 595.782C129.492 596.004 129.408 596.251 129.374 596.506C129.34 596.762 129.356 597.022 129.423 597.271C129.489 597.52 129.605 597.754 129.762 597.958C133.856 603.207 138.008 608.398 142.16 613.348H142.223Z" fill="white"/>
<path d="M133.035 119.369C132.731 120.833 115.749 160.044 115.749 160.044C132.179 190.636 146.651 217.264 164.12 248.35L160.209 256.47L142.131 237.783C140.609 239.678 137.859 242.67 136.636 241.998C135.412 241.326 137.25 236.56 138.358 233.872L128.182 223.311C128.182 223.311 123.175 229.904 121.463 229.054C119.752 228.204 124.03 219.039 124.03 219.039L114.928 209.638C114.928 209.638 109.432 216.415 107.233 214.807C105.034 213.199 109.369 203.568 109.369 203.568L100.755 193.674C92.973 211.928 84.1236 229.71 74.2528 246.925L87.5012 275.748L83.2286 282.409C62.555 254.621 65.3345 257.492 32.36 260.013L32.8481 252.501L63.5485 242.044C63.5485 242.044 64.2778 238.811 67.4535 230.507C70.6292 222.203 84.6815 187.265 84.6815 187.265L72.1625 188.184C72.1625 188.184 67.643 197.831 65.9374 197.527C64.2319 197.222 67.086 187.265 67.086 187.265L51.1443 186.96C51.1443 186.96 47.848 195.391 45.9759 194.598C44.1038 193.806 45.7347 187.023 45.7347 187.023L32.36 186.84C30.8152 189.43 28.2138 193.495 26.9906 192.875C25.9512 192.387 26.3819 189.148 26.9274 186.765L0 186.461L3.35372 176.124C37.7351 168.756 68.1426 162.537 101.008 152.883C116.335 121.253 118.81 115.757 118.81 115.757C128.912 101.159 137.629 97.7995 133.035 119.369Z" fill="white"/>
</svg>
